<svg width="231" height="209" viewBox="0 0 231 209" fill="none" xmlns="http://www.w3.org/2000/svg">
<path d="M77.5968 55.285H197.641L202.943 25.2111H101.385C88.7509 25.2111 77.9067 34.316 75.7034 46.8008L74.8083 51.9741C74.4985 53.6985 75.8411 55.285 77.5968 55.285Z" fill="#FFA814"/>
<path d="M60.8657 135.505H184.318L189.585 105.431H66.1674L60.8657 135.505Z" fill="#FFA814"/>
<path d="M67.5444 95.395H155.951L161.253 65.3211H72.8461L67.5444 95.395Z" fill="#FFA814"/>
<path d="M30.8805 95.395H56.8035C58.1805 95.395 59.351 94.3949 59.592 93.0498L63.8953 68.6665C64.2051 66.9076 62.8625 65.3211 61.1068 65.3211H35.1838C33.8068 65.3211 32.6363 66.3213 32.3953 67.6663L28.092 92.0497C27.7822 93.8086 29.1248 95.395 30.8805 95.395Z" fill="#FFA814"/>
<path d="M55.6676 183.789C53.1545 183.789 51.0889 182.961 49.5053 181.34C47.9217 179.685 47.1299 177.512 47.1299 174.822C47.1299 172.132 47.9217 169.959 49.5397 168.338C51.1233 166.717 53.1889 165.889 55.7364 165.889C58.284 165.889 60.3496 166.683 62.002 168.269C63.6201 169.856 64.4463 171.959 64.4463 174.58C64.4463 175.201 64.4119 175.753 64.3086 176.27H51.6397C51.743 177.409 52.1561 178.305 52.8791 178.995C53.602 179.685 54.5315 180.03 55.6676 180.03C57.1823 180.03 58.3184 179.409 59.0414 178.133H63.7922C63.2758 179.788 62.3119 181.133 60.866 182.168C59.4545 183.272 57.6987 183.789 55.6676 183.789ZM58.5594 170.683C57.7676 169.994 56.8381 169.649 55.7364 169.649C54.6348 169.649 53.7053 169.994 52.9479 170.683C52.1905 171.373 51.7774 172.304 51.6053 173.442H59.7987C59.7643 172.27 59.3512 171.373 58.5594 170.683Z" fill="white"/>
<path d="M69.1284 183.547V161.647H82.6579V165.027H73.535V170.787H80.4891V174.167H73.535V183.547H69.1284Z" fill="white"/>
<path d="M88.7512 181.306C87.0643 179.65 86.2036 177.478 86.2036 174.822C86.2036 172.132 87.0643 169.994 88.7856 168.373C90.5069 166.752 92.6069 165.924 95.1544 165.924C97.702 165.924 99.802 166.752 101.523 168.373C103.245 169.994 104.105 172.166 104.105 174.822C104.105 177.512 103.245 179.65 101.523 181.306C99.802 182.961 97.6676 183.789 95.12 183.789C92.5725 183.789 90.438 182.961 88.7512 181.306ZM95.12 180.064C96.3594 180.064 97.4266 179.616 98.2872 178.685C99.1823 177.788 99.6299 176.477 99.6299 174.822C99.6299 173.166 99.1823 171.89 98.3217 170.994C97.461 170.097 96.3938 169.649 95.1544 169.649C93.9151 169.649 92.8479 170.097 92.0216 170.994C91.161 171.89 90.7479 173.166 90.7479 174.856C90.7479 176.546 91.161 177.822 92.0216 178.719C92.8135 179.616 93.8807 180.064 95.12 180.064Z" fill="white"/>
<path d="M115.604 179.823H117.704V183.513H114.915C113.125 183.513 111.783 183.099 110.819 182.306C109.855 181.478 109.373 180.133 109.373 178.271V169.752H107.514V166.131H109.373V161.82H113.779V166.131H117.669V169.752H113.779V178.271C113.779 178.823 113.917 179.236 114.192 179.478C114.468 179.719 114.915 179.823 115.604 179.823Z" fill="white"/>
<path d="M126.827 168.855C128.066 166.89 129.856 165.889 132.232 165.889C134.607 165.889 136.569 166.717 138.119 168.373C139.668 170.028 140.425 172.166 140.425 174.822C140.425 177.443 139.668 179.581 138.119 181.271C136.569 182.961 134.641 183.789 132.266 183.789C129.891 183.789 128.1 182.72 126.792 180.616V183.548H122.386V160.337H126.792V168.855H126.827ZM134.607 178.581C135.502 177.65 135.984 176.408 135.984 174.822C135.984 173.235 135.537 171.994 134.607 171.097C133.712 170.2 132.645 169.752 131.405 169.752C130.166 169.752 129.099 170.2 128.204 171.132C127.309 172.028 126.827 173.304 126.827 174.891C126.827 176.477 127.274 177.719 128.204 178.65C129.099 179.547 130.166 180.03 131.405 180.03C132.61 179.961 133.678 179.512 134.607 178.581Z" fill="white"/>
<path d="M146.518 181.306C144.831 179.65 143.971 177.478 143.971 174.822C143.971 172.132 144.831 169.994 146.553 168.373C148.274 166.752 150.374 165.924 152.922 165.924C155.469 165.924 157.569 166.752 159.29 168.373C161.012 169.994 161.872 172.166 161.872 174.822C161.872 177.512 161.012 179.65 159.29 181.306C157.569 182.961 155.435 183.789 152.887 183.789C150.34 183.789 148.205 182.961 146.518 181.306ZM152.887 180.064C154.126 180.064 155.194 179.616 156.054 178.685C156.949 177.788 157.397 176.477 157.397 174.822C157.397 173.166 156.949 171.89 156.089 170.994C155.228 170.097 154.161 169.649 152.922 169.649C151.682 169.649 150.615 170.097 149.789 170.994C148.928 171.89 148.515 173.166 148.515 174.856C148.515 176.546 148.928 177.822 149.789 178.719C150.615 179.616 151.648 180.064 152.887 180.064Z" fill="white"/>
<path d="M166.624 183.548V160.337H171.03V183.548H166.624Z" fill="white"/>
<path d="M176.986 183.548V160.337H181.427V183.548H176.986Z" fill="white"/>
</svg>
